<svg id="visual" viewBox="0 0 960 300" width="960" height="300" xmlns="http://www.w3.org/2000/svg" xmlns:xlink="http://www.w3.org/1999/xlink" version="1.1"><path d="M0 58L17.8 58.5C35.7 59 71.3 60 106.8 61.5C142.3 63 177.7 65 213.2 57.5C248.7 50 284.3 33 320 45.5C355.7 58 391.3 100 426.8 105C462.3 110 497.7 78 533.2 65.5C568.7 53 604.3 60 640 72C675.7 84 711.3 101 746.8 102C782.3 103 817.7 88 853.2 77.5C888.7 67 924.3 61 942.2 58L960 55L960 0L942.2 0C924.3 0 888.7 0 853.2 0C817.7 0 782.3 0 746.8 0C711.3 0 675.7 0 640 0C604.3 0 568.7 0 533.2 0C497.7 0 462.3 0 426.8 0C391.3 0 355.7 0 320 0C284.3 0 248.7 0 213.2 0C177.7 0 142.3 0 106.8 0C71.3 0 35.7 0 17.8 0L0 0Z" fill="#4b0082"></path><path d="M0 118L17.8 123.5C35.7 129 71.3 140 106.8 135.5C142.3 131 177.7 111 213.2 106C248.7 101 284.3 111 320 121.5C355.7 132 391.3 143 426.8 141.5C462.3 140 497.7 126 533.2 125.5C568.7 125 604.3 138 640 144.5C675.7 151 711.3 151 746.8 146.5C782.3 142 817.7 133 853.2 135.5C888.7 138 924.3 152 942.2 159L960 166L960 53L942.2 56C924.3 59 888.7 65 853.2 75.5C817.7 86 782.3 101 746.8 100C711.3 99 675.7 82 640 70C604.3 58 568.7 51 533.2 63.5C497.7 76 462.3 108 426.8 103C391.3 98 355.7 56 320 43.5C284.3 31 248.7 48 213.2 55.5C177.7 63 142.3 61 106.8 59.5C71.3 58 35.7 57 17.8 56.5L0 56Z" fill="#362a91"></path><path d="M0 178L17.8 183.5C35.7 189 71.3 200 106.8 197C142.3 194 177.7 177 213.2 167.5C248.7 158 284.3 156 320 161C355.7 166 391.3 178 426.8 181.5C462.3 185 497.7 180 533.2 176.5C568.7 173 604.3 171 640 173.5C675.7 176 711.3 183 746.8 185.5C782.3 188 817.7 186 853.2 187C888.7 188 924.3 192 942.2 194L960 196L960 164L942.2 157C924.3 150 888.7 136 853.2 133.5C817.7 131 782.3 140 746.8 144.5C711.3 149 675.7 149 640 142.5C604.3 136 568.7 123 533.2 123.5C497.7 124 462.3 138 426.8 139.5C391.3 141 355.7 130 320 119.5C284.3 109 248.7 99 213.2 104C177.7 109 142.3 129 106.8 133.5C71.3 138 35.7 127 17.8 121.5L0 116Z" fill="#1d3f9a"></path><path d="M0 205L17.8 208C35.7 211 71.3 217 106.8 215.5C142.3 214 177.7 205 213.2 196.5C248.7 188 284.3 180 320 180C355.7 180 391.3 188 426.8 194C462.3 200 497.7 204 533.2 205.5C568.7 207 604.3 206 640 205C675.7 204 711.3 203 746.8 203C782.3 203 817.7 204 853.2 207.5C888.7 211 924.3 217 942.2 220L960 223L960 194L942.2 192C924.3 190 888.7 186 853.2 185C817.7 184 782.3 186 746.8 183.5C711.3 181 675.7 174 640 171.5C604.3 169 568.7 171 533.2 174.5C497.7 178 462.3 183 426.8 179.5C391.3 176 355.7 164 320 159C284.3 154 248.7 156 213.2 165.5C177.7 175 142.3 192 106.8 195C71.3 198 35.7 187 17.8 181.5L0 176Z" fill="#00509e"></path><path d="M0 253L17.8 248C35.7 243 71.3 233 106.8 230C142.3 227 177.7 231 213.2 230C248.7 229 284.3 223 320 224C355.7 225 391.3 233 426.8 234.5C462.3 236 497.7 231 533.2 230.5C568.7 230 604.3 234 640 235.5C675.7 237 711.3 236 746.8 237.5C782.3 239 817.7 243 853.2 243C888.7 243 924.3 239 942.2 237L960 235L960 221L942.2 218C924.3 215 888.7 209 853.2 205.5C817.7 202 782.3 201 746.8 201C711.3 201 675.7 202 640 203C604.3 204 568.7 205 533.2 203.5C497.7 202 462.3 198 426.8 192C391.3 186 355.7 178 320 178C284.3 178 248.7 186 213.2 194.5C177.7 203 142.3 212 106.8 213.5C71.3 215 35.7 209 17.8 206L0 203Z" fill="#005f9f"></path><path d="M0 256L17.8 254.5C35.7 253 71.3 250 106.8 253C142.3 256 177.7 265 213.2 263C248.7 261 284.3 248 320 251C355.7 254 391.3 273 426.8 274C462.3 275 497.7 258 533.2 257.5C568.7 257 604.3 273 640 280C675.7 287 711.3 285 746.8 286.5C782.3 288 817.7 293 853.2 293C888.7 293 924.3 288 942.2 285.5L960 283L960 233L942.2 235C924.3 237 888.7 241 853.2 241C817.7 241 782.3 237 746.8 235.5C711.3 234 675.7 235 640 233.5C604.3 232 568.7 228 533.2 228.5C497.7 229 462.3 234 426.8 232.5C391.3 231 355.7 223 320 222C284.3 221 248.7 227 213.2 228C177.7 229 142.3 225 106.8 228C71.3 231 35.7 241 17.8 246L0 251Z" fill="#226c9c"></path><path d="M0 301L17.8 301C35.7 301 71.3 301 106.8 301C142.3 301 177.7 301 213.2 301C248.7 301 284.3 301 320 301C355.7 301 391.3 301 426.8 301C462.3 301 497.7 301 533.2 301C568.7 301 604.3 301 640 301C675.7 301 711.3 301 746.8 301C782.3 301 817.7 301 853.2 301C888.7 301 924.3 301 942.2 301L960 301L960 281L942.2 283.5C924.3 286 888.7 291 853.2 291C817.7 291 782.3 286 746.8 284.5C711.3 283 675.7 285 640 278C604.3 271 568.7 255 533.2 255.5C497.7 256 462.3 273 426.8 272C391.3 271 355.7 252 320 249C284.3 246 248.7 259 213.2 261C177.7 263 142.3 254 106.8 251C71.3 248 35.7 251 17.8 252.5L0 254Z" fill="#407899"></path></svg>