<svg id="visual" viewBox="0 0 960 300" width="960" height="300" xmlns="http://www.w3.org/2000/svg" xmlns:xlink="http://www.w3.org/1999/xlink" version="1.1"><path d="M0 64L20 69.5C40 75 80 86 120 86C160 86 200 75 240 67.5C280 60 320 56 360 55C400 54 440 56 480 62.5C520 69 560 80 600 87C640 94 680 97 720 98.5C760 100 800 100 840 94C880 88 920 76 940 70L960 64L960 0L940 0C920 0 880 0 840 0C800 0 760 0 720 0C680 0 640 0 600 0C560 0 520 0 480 0C440 0 400 0 360 0C320 0 280 0 240 0C200 0 160 0 120 0C80 0 40 0 20 0L0 0Z" fill="#ffffff"></path><path d="M0 97L20 105.5C40 114 80 131 120 135C160 139 200 130 240 122.5C280 115 320 109 360 107.5C400 106 440 109 480 115.5C520 122 560 132 600 136C640 140 680 138 720 137.5C760 137 800 138 840 131.5C880 125 920 111 940 104L960 97L960 62L940 68C920 74 880 86 840 92C800 98 760 98 720 96.5C680 95 640 92 600 85C560 78 520 67 480 60.5C440 54 400 52 360 53C320 54 280 58 240 65.5C200 73 160 84 120 84C80 84 40 73 20 67.5L0 62Z" fill="#dccce6"></path><path d="M0 145L20 152.5C40 160 80 175 120 179.5C160 184 200 178 240 170C280 162 320 152 360 150C400 148 440 154 480 159C520 164 560 168 600 171C640 174 680 176 720 175C760 174 800 170 840 161.5C880 153 920 140 940 133.5L960 127L960 95L940 102C920 109 880 123 840 129.5C800 136 760 135 720 135.5C680 136 640 138 600 134C560 130 520 120 480 113.5C440 107 400 104 360 105.5C320 107 280 113 240 120.5C200 128 160 137 120 133C80 129 40 112 20 103.5L0 95Z" fill="#ba9bcd"></path><path d="M0 238L20 240C40 242 80 246 120 249C160 252 200 254 240 251C280 248 320 240 360 239.5C400 239 440 246 480 248C520 250 560 247 600 245.5C640 244 680 244 720 241C760 238 800 232 840 230.5C880 229 920 232 940 233.5L960 235L960 125L940 131.5C920 138 880 151 840 159.5C800 168 760 172 720 173C680 174 640 172 600 169C560 166 520 162 480 157C440 152 400 146 360 148C320 150 280 160 240 168C200 176 160 182 120 177.5C80 173 40 158 20 150.5L0 143Z" fill="#966bb4"></path><path d="M0 268L20 269C40 270 80 272 120 274C160 276 200 278 240 277C280 276 320 272 360 272C400 272 440 276 480 277.5C520 279 560 278 600 278C640 278 680 279 720 277C760 275 800 270 840 268C880 266 920 267 940 267.5L960 268L960 233L940 231.5C920 230 880 227 840 228.5C800 230 760 236 720 239C680 242 640 242 600 243.5C560 245 520 248 480 246C440 244 400 237 360 237.5C320 238 280 246 240 249C200 252 160 250 120 247C80 244 40 240 20 238L0 236Z" fill="#723c9b"></path><path d="M0 301L20 301C40 301 80 301 120 301C160 301 200 301 240 301C280 301 320 301 360 301C400 301 440 301 480 301C520 301 560 301 600 301C640 301 680 301 720 301C760 301 800 301 840 301C880 301 920 301 940 301L960 301L960 266L940 265.5C920 265 880 264 840 266C800 268 760 273 720 275C680 277 640 276 600 276C560 276 520 277 480 275.5C440 274 400 270 360 270C320 270 280 274 240 275C200 276 160 274 120 272C80 270 40 268 20 267L0 266Z" fill="#4b0082"></path></svg>