<svg id="visual" viewBox="0 0 960 300" width="960" height="300" xmlns="http://www.w3.org/2000/svg" xmlns:xlink="http://www.w3.org/1999/xlink" version="1.1"><path d="M0 67L20 69C40 71 80 75 120 81.5C160 88 200 97 240 94.5C280 92 320 78 360 70C400 62 440 60 480 66C520 72 560 86 600 94.5C640 103 680 106 720 104C760 102 800 95 840 86C880 77 920 66 940 60.5L960 55L960 0L940 0C920 0 880 0 840 0C800 0 760 0 720 0C680 0 640 0 600 0C560 0 520 0 480 0C440 0 400 0 360 0C320 0 280 0 240 0C200 0 160 0 120 0C80 0 40 0 20 0L0 0Z" fill="#4b0082"></path><path d="M0 112L20 114C40 116 80 120 120 128C160 136 200 148 240 147C280 146 320 132 360 125.5C400 119 440 120 480 124.5C520 129 560 137 600 141.5C640 146 680 147 720 145C760 143 800 138 840 131.5C880 125 920 117 940 113L960 109L960 53L940 58.5C920 64 880 75 840 84C800 93 760 100 720 102C680 104 640 101 600 92.5C560 84 520 70 480 64C440 58 400 60 360 68C320 76 280 90 240 92.5C200 95 160 86 120 79.5C80 73 40 69 20 67L0 65Z" fill="#723c9b"></path><path d="M0 139L20 142C40 145 80 151 120 158.5C160 166 200 175 240 173C280 171 320 158 360 151C400 144 440 143 480 148.5C520 154 560 166 600 171.5C640 177 680 176 720 174.5C760 173 800 171 840 166.5C880 162 920 155 940 151.5L960 148L960 107L940 111C920 115 880 123 840 129.5C800 136 760 141 720 143C680 145 640 144 600 139.5C560 135 520 127 480 122.5C440 118 400 117 360 123.5C320 130 280 144 240 145C200 146 160 134 120 126C80 118 40 114 20 112L0 110Z" fill="#966bb4"></path><path d="M0 232L20 235C40 238 80 244 120 246.5C160 249 200 248 240 248C280 248 320 249 360 246C400 243 440 236 480 234.5C520 233 560 237 600 238.5C640 240 680 239 720 239C760 239 800 240 840 242.5C880 245 920 249 940 251L960 253L960 146L940 149.5C920 153 880 160 840 164.5C800 169 760 171 720 172.5C680 174 640 175 600 169.5C560 164 520 152 480 146.5C440 141 400 142 360 149C320 156 280 169 240 171C200 173 160 164 120 156.5C80 149 40 143 20 140L0 137Z" fill="#ba9bcd"></path><path d="M0 265L20 266.5C40 268 80 271 120 272C160 273 200 272 240 272C280 272 320 273 360 271.5C400 270 440 266 480 265C520 264 560 266 600 268C640 270 680 272 720 271C760 270 800 266 840 266C880 266 920 270 940 272L960 274L960 251L940 249C920 247 880 243 840 240.5C800 238 760 237 720 237C680 237 640 238 600 236.5C560 235 520 231 480 232.5C440 234 400 241 360 244C320 247 280 246 240 246C200 246 160 247 120 244.5C80 242 40 236 20 233L0 230Z" fill="#dccce6"></path><path d="M0 301L20 301C40 301 80 301 120 301C160 301 200 301 240 301C280 301 320 301 360 301C400 301 440 301 480 301C520 301 560 301 600 301C640 301 680 301 720 301C760 301 800 301 840 301C880 301 920 301 940 301L960 301L960 272L940 270C920 268 880 264 840 264C800 264 760 268 720 269C680 270 640 268 600 266C560 264 520 262 480 263C440 264 400 268 360 269.5C320 271 280 270 240 270C200 270 160 271 120 270C80 269 40 266 20 264.5L0 263Z" fill="#ffffff"></path></svg>