<svg width="0" height="0" class="hidden">
  <symbol version="1.1" xmlns="http://www.w3.org/2000/svg" viewBox="-1297.5179130530926 -2527.0429791001457 5266.036290652184 5266.51619202676" id="logo">
    <desc>Created with Snap</desc>
    <defs></defs>
    <g>
      <g transform="matrix(12.0317,0,0,12.0317,-1070.8363,-2300.1214)">
        <g id="gSkvcyojwuy">
          <g>
            <path fill="#165a3f" d="M82.06866,46.80432c0.44048,0.09728,1.81986-0.49205,3.98136-1.64856
			c2.20975-1.09238,5.2579-2.67703,8.94401-4.68989c7.51703-3.80428,17.93356-8.86331,30.43024-13.1756
			c12.47414-4.32378,26.96772-7.99401,42.01273-9.6109c1.87662-0.19844,3.75923-0.39779,5.64507-0.59735
			c1.88943-0.14902,3.78758-0.23685,5.67796-0.35662c3.77602-0.30159,7.57491-0.23849,11.32912-0.3126
			c1.87773-0.03781,3.75569,0.09517,5.61867,0.13513c1.86383,0.08778,3.71739,0.06724,5.55797,0.24432
			c3.67995,0.31842,7.31462,0.49835,10.86098,1.02225c-24.46938,0.31527-45.84834,5.87472-62.983,13.23676
			c-8.58604,3.71305-16.09875,8.00225-22.67894,12.26207c-3.22648,2.26534-6.32965,4.31355-9.06628,6.60401
			c-1.37437,1.11085-2.71513,2.19456-4.02266,3.25142c-1.23869,1.13261-2.44566,2.23617-3.62017,3.31003
			c-9.26917,8.664-14.87678,16.66336-17.84011,22.57063c-2.84336,6.059-3.17654,9.94636-1.23619,11.60844
			c12.396-15.45393,28.45402-29.09509,47.43205-39.08565c18.9328-10.01645,40.72635-16.36285,63.47681-17.78591
			c22.73022-1.48197,46.37234,1.87225,68.61374,10.25464c11.11929,4.17942,21.8819,9.59661,32.00284,16.15094
			c10.12143,6.55412,19.58212,14.25672,28.18671,22.87717c17.22528,17.23357,30.80743,38.36257,39.42282,61.36801
			c8.65921,22.994,12.38708,47.78455,11.09464,72.0957c-1.24237,24.32739-7.58545,48.12822-18.00375,69.4503
			c-10.38284,21.37689-24.93945,40.10056-41.69687,55.30795c-8.38907,7.61682-17.36337,14.36597-26.70444,20.18491
			c-9.34406,5.82074-19.09393,10.61557-28.94733,14.54181c-9.86093,3.9166-19.85266,6.91727-29.78415,9.08392
			c-9.94624,2.10358-19.82362,3.32999-29.4743,3.85846c-9.65497,0.57462-19.08638,0.22992-28.16501-0.64651
			c-1.13516-0.11664-2.26575-0.23282-3.39136-0.34888c-1.12697-0.11121-2.24884-0.22696-3.3564-0.41266
			c-2.22144-0.33698-4.42419-0.67114-6.60777-1.00272c-2.18347-0.34042-4.3194-0.83633-6.45241-1.24716
			c-1.0649-0.21622-2.12482-0.43161-3.18013-0.64587c-1.05194-0.22882-2.08591-0.51355-3.12253-0.76712
			c-2.06961-0.52557-4.12024-1.04596-6.15103-1.56174c-2.00519-0.61169-3.99089-1.21768-5.95718-1.81741
			c-0.98251-0.30374-1.9601-0.60596-2.93306-0.90634c-0.95847-0.3439-1.91188-0.68619-2.86023-1.02689
			c-1.89658-0.68607-3.77393-1.36462-5.63077-2.03653c-7.32208-2.95859-14.25258-6.03729-20.57684-9.50757
			c-12.72123-6.81235-23.36193-14.39328-32.06516-21.69196c-2.17656-1.82785-4.29309-3.57358-6.18667-5.40707
			c-1.91791-1.80673-3.80501-3.49908-5.5228-5.21066c-3.36911-3.48929-6.50893-6.61322-9.06343-9.67181
			c-1.30597-1.50275-2.53819-2.92072-3.69509-4.25165c-1.09204-1.3862-2.11286-2.68185-3.06096-3.88477
			c-0.945-1.20602-1.81723-2.31924-2.61518-3.33749c-0.77715-1.03403-1.43549-2.00656-2.04808-2.85944
			c-2.41859-3.43576-3.70066-5.25714-3.74636-5.32217c-5.46113-8.26123-10.29185-16.883-14.46608-25.78323
			c-4.16677-8.90799-7.4951-18.15073-10.23626-27.52586c-2.76757-9.37598-4.63573-18.97604-5.88218-28.62491
			c-0.68911-4.82196-0.98716-9.67961-1.33614-14.5295l-0.20802-7.29013c-0.05188-1.21474-0.04251-2.42969-0.00855-3.6449
			l0.07005-3.64503c0.42722-19.44357,3.96095-38.7907,10.20834-57.30516c3.20473-9.23248,7.07828-18.25121,11.59234-26.98227
			c4.59464-8.69124,9.87891-17.03811,15.72216-25.0221c0.69774-0.90845,2.08265-2.71173,3.77679-4.91772
			c0.42325-0.55247,0.86528-1.12967,1.32112-1.72482c0.48035-0.5741,0.97521-1.16545,1.47757-1.76587
			c1.00593-1.20171,2.04324-2.44109,3.06269-3.65897c1.98835-2.48425,4.12689-4.67604,5.64749-6.44722
			c1.54144-1.75171,2.56507-2.98889,2.63037-3.26817l-0.00708,0.00397c-17.48207,17.50659-31.66323,38.43564-41.30956,61.28998
			c-9.67891,22.84109-14.85973,47.53831-15.24643,72.3043c-0.40845,24.76634,3.97346,49.61223,12.90819,72.75127
			c8.90224,23.14932,22.40002,44.53232,39.34857,62.56775c16.89465,18.05338,37.32344,32.93442,59.85665,43.33493
			c22.51597,10.43509,47.04972,16.40039,71.79456,17.58765c24.74609,1.20511,49.72084-2.37305,73.14037-10.55167
			c23.42676-8.14722,45.24942-20.94238,63.81384-37.33554c18.55795-16.34717,34.06335-36.25995,45.19333-58.44409
			c11.15619-22.16071,17.92752-46.4855,19.90485-71.17728c1.99942-24.6918-0.77719-49.75745-8.18207-73.42302
			c-7.37558-23.67151-19.42508-45.90224-35.18915-65.02438c-15.71448-19.13124-35.16812-35.17571-56.96564-47.04198
			c-21.789-11.86739-45.88651-19.42662-70.50345-22.19782c-24.61627-2.79403-49.7552-0.82467-73.64371,5.80912
			c-23.89274,6.60539-46.50471,17.92143-66.11643,33.08085L82.06866,46.80432z"></path>
          </g>
        </g>
        <desc>Created with Snap</desc>
        <defs></defs>
      </g>
      <g>
        <g transform="matrix(0.5,0,0,-0.5,0,0)">
          <path d="M487 0L70 0L70 126L178 141L687 1456L856 1456L1356 141L1463 126L1463 0L1045 0L1045 126L1155 145L1059 413L476 413L377 145L487 126L487 0ZM755 1170L537 578L999 578L785 1170L773 1203L767 1203L755 1170ZM2130 0L1607 0L1607 126L1770 154L1770 927L1607 955L1607 1082L1946 1082L1960 921Q2014 1007 2095 1054Q2177 1102 2281 1102Q2456 1102 2552 999Q2648 897 2648 683L2648 154L2811 126L2811 0L2288 0L2288 126L2451 154L2451 679Q2451 822 2394 882Q2338 942 2222 942Q2137 942 2071 901Q2006 860 1967 789L1967 154L2130 126L2130 0ZM3473 0L2950 0L2950 126L3113 154L3113 927L2950 955L2950 1082L3289 1082L3303 921Q3357 1007 3438 1054Q3520 1102 3624 1102Q3799 1102 3895 999Q3991 897 3991 683L3991 154L4154 126L4154 0L3631 0L3631 126L3794 154L3794 679Q3794 822 3737 882Q3681 942 3565 942Q3480 942 3414 901Q3349 860 3310 789L3310 154L3473 126L3473 0ZM4643 -21Q4474 -21 4386 61Q4298 144 4298 294Q4298 397 4354 473Q4411 550 4518 592Q4625 635 4774 635L4967 635L4967 741Q4967 839 4907 893Q4848 947 4740 947Q4672 947 4622 930Q4572 914 4531 885L4510 734L4358 734L4358 982Q4431 1041 4528 1071Q4625 1102 4743 1102Q4940 1102 5052 1008Q5164 914 5164 739L5164 218Q5164 197 5164 177Q5165 157 5167 137L5272 126L5272 0L4989 0Q4980 44 4975 79Q4970 114 4968 149Q4911 76 4825 27Q4740 -21 4643 -21ZM4672 144Q4770 144 4851 191Q4932 238 4967 304L4967 500L4767 500Q4631 500 4563 435Q4495 370 4495 290Q4495 219 4539 181Q4583 144 4672 144Z" fill="#165a3f"></path>
        </g>
      </g>
      <g transform="matrix(1,0,0,1,-373.5,1097.7)">
        <g transform="matrix(0.5,0,0,-0.5,0,0)">
          <path d="M606 -21Q473 -21 350 18Q227 57 115 138L115 449L268 449L301 220Q366 180 442 158Q518 136 606 136Q706 136 775 166Q845 197 882 251Q919 305 919 377Q919 444 887 495Q855 546 781 584Q708 623 581 652Q431 687 327 745Q224 804 170 887Q117 971 117 1079Q117 1193 177 1283Q238 1373 346 1425Q454 1477 598 1477Q751 1477 868 1430Q986 1384 1062 1318L1062 1027L909 1027L876 1235Q831 1271 764 1295Q697 1319 598 1319Q514 1319 450 1289Q386 1260 350 1207Q314 1154 314 1082Q314 1019 346 972Q379 925 452 889Q526 854 649 823Q879 766 997 654Q1116 543 1116 379Q1116 262 1053 171Q990 81 875 30Q761 -21 606 -21ZM1769 -21Q1619 -21 1510 49Q1402 120 1343 244Q1284 369 1284 529L1284 551Q1284 711 1343 835Q1402 960 1510 1031Q1619 1102 1767 1102Q1917 1102 2025 1031Q2134 960 2193 836Q2252 712 2252 551L2252 529Q2252 368 2193 243Q2134 119 2026 49Q1918 -21 1769 -21ZM1769 133Q1863 133 1926 184Q1990 236 2022 325Q2055 415 2055 529L2055 551Q2055 665 2022 754Q1990 844 1926 895Q1862 947 1767 947Q1673 947 1609 895Q1545 844 1513 754Q1481 665 1481 551L1481 529Q1481 415 1513 325Q1545 236 1609 184Q1674 133 1769 133ZM2927 0L2404 0L2404 126L2567 154L2567 927L2404 955L2404 1082L2743 1082L2757 921Q2811 1007 2892 1054Q2974 1102 3078 1102Q3253 1102 3349 999Q3445 897 3445 683L3445 154L3608 126L3608 0L3085 0L3085 126L3248 154L3248 679Q3248 822 3191 882Q3135 942 3019 942Q2934 942 2868 901Q2803 860 2764 789L2764 154L2927 126L2927 0ZM4263 0L3740 0L3740 126L3903 154L3903 927L3740 955L3740 1082L4100 1082L4100 154L4263 126L4263 0ZM4100 1349L3893 1349L3893 1560L4100 1560L4100 1349ZM4922 0L4399 0L4399 126L4562 154L4562 927L4399 955L4399 1082L4738 1082L4752 921Q4806 1007 4887 1054Q4969 1102 5073 1102Q5248 1102 5344 999Q5440 897 5440 683L5440 154L5603 126L5603 0L5080 0L5080 126L5243 154L5243 679Q5243 822 5186 882Q5130 942 5014 942Q4929 942 4863 901Q4798 860 4759 789L4759 154L4922 126L4922 0ZM6092 -21Q5923 -21 5835 61Q5747 144 5747 294Q5747 397 5803 473Q5860 550 5967 592Q6074 635 6223 635L6416 635L6416 741Q6416 839 6356 893Q6297 947 6189 947Q6121 947 6071 930Q6021 914 5980 885L5959 734L5807 734L5807 982Q5880 1041 5977 1071Q6074 1102 6192 1102Q6389 1102 6501 1008Q6613 914 6613 739L6613 218Q6613 197 6613 177Q6614 157 6616 137L6721 126L6721 0L6438 0Q6429 44 6424 79Q6419 114 6417 149Q6360 76 6274 27Q6189 -21 6092 -21ZM6121 144Q6219 144 6300 191Q6381 238 6416 304L6416 500L6216 500Q6080 500 6012 435Q5944 370 5944 290Q5944 219 5988 181Q6032 144 6121 144Z" fill="#165a3f"></path>
        </g>
      </g>
    </g>
  </symbol>
</svg>