<svg id="visual" viewBox="0 0 900 200" width="900" height="200" xmlns="http://www.w3.org/2000/svg" xmlns:xlink="http://www.w3.org/1999/xlink" version="1.1"><path d="M0 87L82 87L82 51L164 51L164 39L245 39L245 63L327 63L327 43L409 43L409 65L491 65L491 45L573 45L573 35L655 35L655 55L736 55L736 61L818 61L818 39L900 39L900 49L900 0L900 0L818 0L818 0L736 0L736 0L655 0L655 0L573 0L573 0L491 0L491 0L409 0L409 0L327 0L327 0L245 0L245 0L164 0L164 0L82 0L82 0L0 0Z" fill="#f7e1d7"></path><path d="M0 103L82 103L82 83L164 83L164 79L245 79L245 97L327 97L327 57L409 57L409 95L491 95L491 63L573 63L573 55L655 55L655 79L736 79L736 87L818 87L818 65L900 65L900 85L900 47L900 37L818 37L818 59L736 59L736 53L655 53L655 33L573 33L573 43L491 43L491 63L409 63L409 41L327 41L327 61L245 61L245 37L164 37L164 49L82 49L82 85L0 85Z" fill="#c5beaf"></path><path d="M0 145L82 145L82 103L164 103L164 109L245 109L245 115L327 115L327 107L409 107L409 131L491 131L491 95L573 95L573 101L655 101L655 97L736 97L736 115L818 115L818 113L900 113L900 119L900 83L900 63L818 63L818 85L736 85L736 77L655 77L655 53L573 53L573 61L491 61L491 93L409 93L409 55L327 55L327 95L245 95L245 77L164 77L164 81L82 81L82 101L0 101Z" fill="#959c90"></path><path d="M0 163L82 163L82 135L164 135L164 129L245 129L245 137L327 137L327 141L409 141L409 155L491 155L491 127L573 127L573 129L655 129L655 131L736 131L736 141L818 141L818 137L900 137L900 151L900 117L900 111L818 111L818 113L736 113L736 95L655 95L655 99L573 99L573 93L491 93L491 129L409 129L409 105L327 105L327 113L245 113L245 107L164 107L164 101L82 101L82 143L0 143Z" fill="#6b7975"></path><path d="M0 201L82 201L82 201L164 201L164 201L245 201L245 201L327 201L327 201L409 201L409 201L491 201L491 201L573 201L573 201L655 201L655 201L736 201L736 201L818 201L818 201L900 201L900 201L900 149L900 135L818 135L818 139L736 139L736 129L655 129L655 127L573 127L573 125L491 125L491 153L409 153L409 139L327 139L327 135L245 135L245 127L164 127L164 133L82 133L82 161L0 161Z" fill="#4a5759"></path></svg>