<svg id="visual" viewBox="0 0 900 100" width="900" height="100" xmlns="http://www.w3.org/2000/svg" xmlns:xlink="http://www.w3.org/1999/xlink" version="1.1"><path d="M0 15L50 15L50 14L100 14L100 12L150 12L150 12L200 12L200 8L250 8L250 11L300 11L300 17L350 17L350 16L400 16L400 17L450 17L450 16L500 16L500 17L550 17L550 15L600 15L600 14L650 14L650 11L700 11L700 14L750 14L750 13L800 13L800 14L850 14L850 11L900 11L900 16L900 0L900 0L850 0L850 0L800 0L800 0L750 0L750 0L700 0L700 0L650 0L650 0L600 0L600 0L550 0L550 0L500 0L500 0L450 0L450 0L400 0L400 0L350 0L350 0L300 0L300 0L250 0L250 0L200 0L200 0L150 0L150 0L100 0L100 0L50 0L50 0L0 0Z" fill="#b0c4b1"></path><path d="M0 35L50 35L50 31L100 31L100 32L150 32L150 25L200 25L200 24L250 24L250 28L300 28L300 38L350 38L350 35L400 35L400 30L450 30L450 35L500 35L500 28L550 28L550 26L600 26L600 25L650 25L650 23L700 23L700 36L750 36L750 34L800 34L800 35L850 35L850 29L900 29L900 27L900 14L900 9L850 9L850 12L800 12L800 11L750 11L750 12L700 12L700 9L650 9L650 12L600 12L600 13L550 13L550 15L500 15L500 14L450 14L450 15L400 15L400 14L350 14L350 15L300 15L300 9L250 9L250 6L200 6L200 10L150 10L150 10L100 10L100 12L50 12L50 13L0 13Z" fill="#91a89c"></path><path d="M0 62L50 62L50 67L100 67L100 64L150 64L150 51L200 51L200 52L250 52L250 51L300 51L300 52L350 52L350 69L400 69L400 49L450 49L450 66L500 66L500 52L550 52L550 44L600 44L600 55L650 55L650 51L700 51L700 57L750 57L750 63L800 63L800 58L850 58L850 65L900 65L900 63L900 25L900 27L850 27L850 33L800 33L800 32L750 32L750 34L700 34L700 21L650 21L650 23L600 23L600 24L550 24L550 26L500 26L500 33L450 33L450 28L400 28L400 33L350 33L350 36L300 36L300 26L250 26L250 22L200 22L200 23L150 23L150 30L100 30L100 29L50 29L50 33L0 33Z" fill="#768c87"></path><path d="M0 79L50 79L50 83L100 83L100 77L150 77L150 68L200 68L200 64L250 64L250 62L300 62L300 70L350 70L350 82L400 82L400 64L450 64L450 81L500 81L500 68L550 68L550 57L600 57L600 68L650 68L650 69L700 69L700 69L750 69L750 75L800 75L800 69L850 69L850 80L900 80L900 72L900 61L900 63L850 63L850 56L800 56L800 61L750 61L750 55L700 55L700 49L650 49L650 53L600 53L600 42L550 42L550 50L500 50L500 64L450 64L450 47L400 47L400 67L350 67L350 50L300 50L300 49L250 49L250 50L200 50L200 49L150 49L150 62L100 62L100 65L50 65L50 60L0 60Z" fill="#5f7170"></path><path d="M0 101L50 101L50 101L100 101L100 101L150 101L150 101L200 101L200 101L250 101L250 101L300 101L300 101L350 101L350 101L400 101L400 101L450 101L450 101L500 101L500 101L550 101L550 101L600 101L600 101L650 101L650 101L700 101L700 101L750 101L750 101L800 101L800 101L850 101L850 101L900 101L900 101L900 70L900 78L850 78L850 67L800 67L800 73L750 73L750 67L700 67L700 67L650 67L650 66L600 66L600 55L550 55L550 66L500 66L500 79L450 79L450 62L400 62L400 80L350 80L350 68L300 68L300 60L250 60L250 62L200 62L200 66L150 66L150 75L100 75L100 81L50 81L50 77L0 77Z" fill="#4a5759"></path></svg>