<svg id="visual" viewBox="0 0 900 300" width="900" height="300" xmlns="http://www.w3.org/2000/svg" xmlns:xlink="http://www.w3.org/1999/xlink" version="1.1"><rect x="0" y="0" width="900" height="300" fill="#b0c4b1"></rect><path d="M0 114L15 117.5C30 121 60 128 90 127.5C120 127 150 119 180 107.8C210 96.7 240 82.3 270 80.3C300 78.3 330 88.7 360 101.7C390 114.7 420 130.3 450 128.2C480 126 510 106 540 93.2C570 80.3 600 74.7 630 72.7C660 70.7 690 72.3 720 78.7C750 85 780 96 810 99.5C840 103 870 99 885 97L900 95L900 0L885 0C870 0 840 0 810 0C780 0 750 0 720 0C690 0 660 0 630 0C600 0 570 0 540 0C510 0 480 0 450 0C420 0 390 0 360 0C330 0 300 0 270 0C240 0 210 0 180 0C150 0 120 0 90 0C60 0 30 0 15 0L0 0Z" fill="#f7e1d7" stroke-linecap="round" stroke-linejoin="miter"></path></svg>