<svg id="visual" viewBox="0 0 900 100" width="900" height="100" xmlns="http://www.w3.org/2000/svg" xmlns:xlink="http://www.w3.org/1999/xlink" version="1.1"><rect x="0" y="0" width="900" height="200" fill="#f7e1d7"></rect><path d="M0 63L21.5 60C43 57 86 51 128.8 49.2C171.7 47.3 214.3 49.7 257.2 52.8C300 56 343 60 385.8 63.2C428.7 66.3 471.3 68.7 514.2 67C557 65.3 600 59.7 642.8 54.5C685.7 49.3 728.3 44.7 771.2 47.3C814 50 857 60 878.5 65L900 70L900 0L878.5 0C857 0 814 0 771.2 0C728.3 0 685.7 0 642.8 0C600 0 557 0 514.2 0C471.3 0 428.7 0 385.8 0C343 0 300 0 257.2 0C214.3 0 171.7 0 128.8 0C86 0 43 0 21.5 0L0 0Z" fill="#b0c4b1" stroke-linecap="round" stroke-linejoin="miter"></path></svg>