<svg id="visual" viewBox="0 0 900 300" width="900" height="300" xmlns="http://www.w3.org/2000/svg" xmlns:xlink="http://www.w3.org/1999/xlink" version="1.1"><rect x="0" y="0" width="900" height="300" fill="#b0c4b1"></rect><path d="M0 184L15 180.5C30 177 60 170 90 170.5C120 171 150 179 180 190.2C210 201.3 240 215.7 270 217.7C300 219.7 330 209.3 360 196.3C390 183.3 420 167.7 450 169.8C480 172 510 192 540 204.8C570 217.7 600 223.3 630 225.3C660 227.3 690 225.7 720 219.3C750 213 780 202 810 198.5C840 195 870 199 885 201L900 203L900 301L885 301C870 301 840 301 810 301C780 301 750 301 720 301C690 301 660 301 630 301C600 301 570 301 540 301C510 301 480 301 450 301C420 301 390 301 360 301C330 301 300 301 270 301C240 301 210 301 180 301C150 301 120 301 90 301C60 301 30 301 15 301L0 301Z" fill="#f7e1d7" stroke-linecap="round" stroke-linejoin="miter"></path></svg>